<?xml version="1.0" encoding="utf-8"?>
<!-- Generator: Adobe Illustrator 18.0.0, SVG Export Plug-In . SVG Version: 6.00 Build 0)  -->
<!DOCTYPE svg PUBLIC "-//W3C//DTD SVG 1.1//EN" "http://www.w3.org/Graphics/SVG/1.1/DTD/svg11.dtd">
<svg version="1.1" id="Layer_1" xmlns="http://www.w3.org/2000/svg" xmlns:xlink="http://www.w3.org/1999/xlink" x="0px" y="0px"
	 viewBox="0 0 219 27" enable-background="new 0 0 219 27" xml:space="preserve">
<g>
	<g>
		<path fill="#FAB432" d="M14.9,9.7c0,0-0.5,0.5-0.8,0.8c-0.6,0.6-1.1,1.1-1.5,1.8V2.1h2.3V9.7z M11.7,13.5
			c-0.6-0.6-1.1-1.2-2.1-1.8V4.9h2.1V13.5z M10.3,16.4c0,0,0,0.1,0,0.1c-1.7-1.9-3.8-3.3-6.2-4.2L4.9,10c2.5,0.9,4.7,2.3,6.5,4.2
			C11,14.9,10.6,15.6,10.3,16.4 M9.2,19.9c-1.2-1.7-2.8-3.1-4.8-4L5.3,14c1.8,0.8,3.4,2,4.6,3.4C9.6,18.2,9.4,19.1,9.2,19.9 M12.5,0
			C5.6,0,0,5.6,0,12.5c0,5.9,4.2,10.9,9.7,12.2c0-0.3,0-0.7,0-1.1c0-6.6,3.6-12.6,9.4-15.7l1.1,2.1c-5,2.7-8.2,7.9-8.2,13.6
			c0,0.5,0,0.9,0.1,1.4c0.1,0,0.2,0,0.4,0c0.2,0,0.3,0,0.5,0c0-0.4-0.1-0.9-0.1-1.3c0-2.4,0.6-4.7,1.7-6.8c1.1-2,2.7-3.6,4.6-4.9
			l1.1,1.7c-1.6,1.1-3,2.5-3.9,4.2c-1,1.7-1.5,3.7-1.5,5.8c0,0.4,0,0.7,0.1,1.1c5.7-1.2,9.9-6.2,9.9-12.2C25,5.6,19.4,0,12.5,0"/>
		<path fill="#878787" d="M102.3,27l-0.9-2l0.1-0.1c0.6-0.3,1.3-0.9,1.8-1.6c0.6-0.7,1-1.5,1.2-2.1c0.1-0.3,0.1-0.4,0.1-0.6
			c0-0.1,0-0.3,0-0.4l-3.4-11.8h2.5l1.8,7.4c0.2,0.7,0.3,1.3,0.4,1.8c0,0.1,0,0.2,0.1,0.3c0.1-0.6,0.3-1.3,0.5-2.1l1.6-7.4h2.4
			l-2.2,8.3c-0.8,3.1-1.7,6.2-3.4,8.2c-1.1,1.3-2.2,1.9-2.5,2L102.3,27z M99.9,21.7l-0.1-0.1c0,0-1.2-0.7-1.8-1.7
			c-0.5-0.8-0.6-2.5-0.6-3.7V3.6h2.3v12.8c0,0.6,0,1.7,0.2,2.1c0.4,1,1.2,1.4,1.2,1.4l0.1,0.1L99.9,21.7z M159.6,21.7
			c-1.5,0-2.7-0.6-3.5-1.6c-0.7-1.1-1.1-2.8-1.1-5c0-2.2,0.5-3.8,1.4-4.9c0.9-1.1,2.2-1.7,3.8-1.7c0.6,0,1,0,1.3,0.1
			c0.3,0.1,0.6,0.1,0.9,0.2V3.6h2.3v13.4c0,0.8,0,1.6,0,2.3c0,0.7,0.1,1.4,0.2,2l0,0.2h-1.6l-0.4-1.4c-0.3,0.5-0.7,0.8-1.2,1.2
			C161.1,21.5,160.4,21.7,159.6,21.7 M139.5,21.7c-0.9,0-1.7-0.2-2.3-0.5c-0.7-0.3-1.2-0.8-1.6-1.4c-0.4-0.6-0.7-1.3-0.9-2.1
			c-0.2-0.8-0.3-1.7-0.3-2.7c0-2.2,0.4-3.8,1.3-5c0.9-1.2,2.2-1.7,3.8-1.7c0.5,0,1.1,0.1,1.6,0.2c0.5,0.1,1,0.4,1.4,0.7
			c0.4,0.4,0.8,0.9,1,1.5c0.3,0.7,0.4,1.5,0.4,2.5c0,0.3,0,0.6,0,0.9c0,0.3-0.1,0.7-0.1,1l0,0.1h-7c0,0.7,0.1,1.3,0.2,1.8
			c0.1,0.6,0.3,1.1,0.6,1.4c0.3,0.4,0.6,0.7,1,0.9c0.4,0.2,0.9,0.3,1.6,0.3c0.5,0,1-0.1,1.4-0.2c0.5-0.2,0.8-0.4,1.1-0.6l0.1-0.1
			l0.9,1.6l-0.1,0.1c-0.5,0.4-1,0.7-1.7,0.9C141,21.6,140.3,21.7,139.5,21.7 M49.2,21.7c-0.6,0-1.1-0.1-1.6-0.2
			c-0.5-0.1-0.9-0.4-1.2-0.8c-0.3-0.4-0.6-0.9-0.7-1.5c-0.2-0.6-0.2-1.4-0.2-2.4V8.6h2.3v7.8c0,1.2,0.1,2.1,0.4,2.7
			c0.3,0.5,0.7,0.7,1.5,0.7c0.4,0,0.7-0.1,1-0.2c0.3-0.1,0.6-0.3,0.8-0.5c0.2-0.2,0.4-0.5,0.6-0.8c0.2-0.3,0.3-0.6,0.4-0.9V8.6h2.3
			v9.1c0,0.6,0,1.2,0.1,1.9c0,0.6,0.1,1.2,0.2,1.7l0,0.2h-1.7l-0.5-1.7c-0.3,0.5-0.8,0.9-1.3,1.3C50.9,21.5,50.1,21.7,49.2,21.7
			 M37.4,21.7c-1.2,0-2.2-0.2-3-0.7c-0.8-0.4-1.5-1.1-2-1.9c-0.5-0.8-0.9-1.8-1.1-2.9c-0.2-1.1-0.4-2.4-0.4-3.8c0-3,0.5-5.3,1.6-6.8
			c1.1-1.6,2.7-2.4,4.9-2.4c1.2,0,2.2,0.2,3,0.7c0.8,0.4,1.5,1.1,2,1.9c0.5,0.8,0.9,1.8,1.1,2.9c0.2,1.1,0.4,2.4,0.4,3.8
			c0,3-0.5,5.3-1.6,6.8C41.3,20.9,39.6,21.7,37.4,21.7 M72.6,21.6c-0.2,0-0.5,0-0.9,0c-0.4,0-0.7,0-1.2,0c-0.4,0-0.8,0-1.1-0.1
			c-0.3,0-0.6,0-0.8-0.1l-0.1,0V3.6l0.1,0c0.3-0.1,0.6-0.1,1-0.1c0.4,0,0.7,0,1.1,0l1.1,0c0.4,0,0.7,0,1,0c1.4,0,2.5,0.2,3.5,0.6
			c1,0.4,1.8,1,2.4,1.8c0.6,0.8,1,1.7,1.3,2.8c0.3,1.1,0.4,2.3,0.4,3.7c0,1.2-0.1,2.4-0.4,3.5c-0.3,1.1-0.7,2.1-1.3,3
			c-0.6,0.8-1.4,1.5-2.4,2C75.3,21.4,74.1,21.6,72.6,21.6 M120.6,21.6h-0.9c-0.3,0-0.7,0-1.1,0c-0.4,0-0.8-0.1-1.2-0.1
			c-0.4,0-0.7-0.1-1.1-0.2l-0.1,0V3.7l0.1,0c0.6-0.1,1.2-0.2,2-0.3c0.7-0.1,1.6-0.1,2.4-0.1c0.6,0,1.3,0.1,1.9,0.2
			c0.6,0.1,1.2,0.3,1.7,0.6c0.5,0.3,0.9,0.8,1.3,1.3c0.3,0.6,0.5,1.3,0.5,2.2c0,0.4-0.1,0.9-0.2,1.3c-0.1,0.4-0.3,0.9-0.5,1.3
			c-0.2,0.4-0.6,0.8-0.9,1.1c-0.3,0.3-0.7,0.5-1.1,0.6c0.4,0.1,0.7,0.2,1,0.4c0.4,0.2,0.8,0.5,1.1,0.8c0.3,0.4,0.6,0.8,0.8,1.3
			c0.2,0.5,0.3,1.1,0.3,1.8c0,0.9-0.2,1.7-0.5,2.4c-0.3,0.7-0.8,1.2-1.3,1.7c-0.6,0.4-1.2,0.7-1.9,1
			C122.2,21.5,121.4,21.6,120.6,21.6 M148.1,21.6c-1,0-1.9-0.3-2.5-1c-0.7-0.7-1-1.6-1-2.7c0-0.7,0.1-1.4,0.4-1.9
			c0.3-0.5,0.7-0.9,1.2-1.2c0.5-0.3,1.1-0.5,1.8-0.7c0.7-0.1,1.4-0.2,2.3-0.2h0.6c0.1,0,0.3,0,0.5,0c0-0.5,0.1-0.9,0.1-1.2
			c0-0.9-0.1-1.6-0.4-1.9c-0.3-0.4-0.8-0.5-1.6-0.5c-0.5,0-1.1,0.1-1.6,0.2c-0.6,0.1-1.1,0.3-1.5,0.5l-0.1,0.1l-0.8-1.7l0.1-0.1
			c0.5-0.3,1.2-0.5,2-0.7c0.8-0.2,1.6-0.3,2.5-0.3c0.8,0,1.4,0.1,1.9,0.3c0.5,0.2,0.9,0.5,1.2,0.9c0.3,0.4,0.5,0.8,0.6,1.3
			c0.1,0.5,0.1,1,0.1,1.5c0,1,0,2-0.1,2.9c0,1-0.1,1.9-0.1,2.7c0,0.6,0,1.2,0.1,1.8c0,0.5,0.1,1,0.3,1.5l0,0.2H152l-0.5-1.4
			c-0.3,0.4-0.7,0.8-1.2,1.1C149.8,21.4,149.1,21.6,148.1,21.6 M84.7,21.6c-1,0-1.9-0.3-2.5-1c-0.7-0.7-1-1.6-1-2.7
			c0-0.7,0.1-1.4,0.4-1.9c0.3-0.5,0.7-0.9,1.2-1.2c0.5-0.3,1.1-0.5,1.8-0.7C85.2,14,86,14,86.8,14h0.6c0.1,0,0.3,0,0.5,0
			c0-0.5,0.1-0.9,0.1-1.2c0-0.9-0.1-1.6-0.4-1.9c-0.3-0.4-0.8-0.5-1.6-0.5c-0.5,0-1.1,0.1-1.6,0.2c-0.6,0.1-1.1,0.3-1.5,0.5
			l-0.1,0.1l-0.8-1.7l0.1-0.1c0.5-0.3,1.2-0.5,2-0.7c0.8-0.2,1.6-0.3,2.5-0.3c0.8,0,1.4,0.1,1.9,0.3c0.5,0.2,0.9,0.5,1.2,0.9
			c0.3,0.4,0.5,0.8,0.6,1.3c0.1,0.5,0.1,1,0.1,1.5c0,1,0,2-0.1,2.9c0,0.9-0.1,1.8-0.1,2.7c0,0.6,0,1.2,0.1,1.8c0,0.5,0.1,1,0.3,1.5
			l0,0.2h-1.8L88.1,20c-0.3,0.4-0.7,0.8-1.2,1.1C86.3,21.4,85.6,21.6,84.7,21.6 M130.5,21.4h-2.3V8.6h1.6l0.3,1.2
			c0.3-0.4,0.6-0.8,1-1c0.7-0.5,1.8-0.6,3.1-0.2l0.1,0l-0.4,2.1l-0.1,0c-1.2-0.4-2-0.3-2.6,0.2c-0.3,0.3-0.6,0.7-0.7,1.2L130.5,21.4
			z M94.7,21.4h-2.3V8.6h2.3V21.4z M59,21.4h-2.3V8.6h1.6l0.3,1.2c0.3-0.4,0.6-0.8,1-1c0.7-0.5,1.8-0.6,3.1-0.2l0.1,0l-0.4,2.1
			l-0.1,0c-1.2-0.4-2-0.3-2.6,0.2c-0.3,0.3-0.6,0.7-0.7,1.2L59,21.4z M160.3,10.3c-0.9,0-1.7,0.4-2.2,1.1c-0.5,0.8-0.8,2-0.8,3.6
			c0,0.7,0.1,1.4,0.2,2c0.1,0.6,0.3,1.1,0.5,1.5c0.2,0.4,0.5,0.7,0.8,1c0.3,0.2,0.7,0.3,1.2,0.3c1.3,0,2.1-0.7,2.4-2v-7
			c-0.2-0.2-0.5-0.3-0.8-0.4C161.3,10.3,160.9,10.3,160.3,10.3 M37.4,5.3c-1.3,0-2.3,0.6-3,1.7c-0.7,1.2-1.1,3-1.1,5.5
			c0,1,0.1,1.9,0.2,2.8c0.2,0.9,0.4,1.6,0.7,2.3c0.3,0.6,0.7,1.2,1.3,1.6c0.5,0.4,1.1,0.6,1.9,0.6c1.4,0,2.4-0.6,3.1-1.7
			c0.7-1.2,1.1-3,1.1-5.5c0-1-0.1-1.9-0.2-2.8c-0.2-0.9-0.4-1.6-0.7-2.3c-0.3-0.7-0.7-1.2-1.3-1.6C38.8,5.5,38.2,5.3,37.4,5.3
			 M150.3,15.6c-0.4,0-0.9,0-1.3,0.1c-0.4,0.1-0.8,0.2-1.1,0.3c-0.3,0.2-0.6,0.4-0.7,0.6c-0.2,0.3-0.3,0.6-0.3,1
			c0,0.6,0.2,1.1,0.5,1.5c0.3,0.3,0.8,0.5,1.3,0.5c0.7,0,1.3-0.2,1.7-0.5c0.4-0.3,0.7-0.7,0.8-1v-2.5c-0.1,0-0.3,0-0.4,0
			C150.7,15.6,150.5,15.6,150.3,15.6 M86.9,15.6c-0.4,0-0.9,0-1.3,0.1c-0.4,0.1-0.8,0.2-1.1,0.3c-0.3,0.2-0.6,0.4-0.7,0.6
			c-0.2,0.3-0.3,0.6-0.3,1c0,0.6,0.2,1.1,0.5,1.5c0.3,0.3,0.8,0.5,1.3,0.5c0.7,0,1.3-0.2,1.7-0.5c0.4-0.3,0.7-0.7,0.8-1v-2.5
			c-0.1,0-0.3,0-0.4,0C87.2,15.6,87,15.6,86.9,15.6 M70.8,19.5c0.1,0,0.1,0,0.3,0c0.2,0,0.4,0,0.6,0l0.6,0c0.2,0,0.3,0,0.4,0
			c1,0,1.8-0.2,2.5-0.6c0.7-0.4,1.2-0.9,1.6-1.6c0.4-0.7,0.7-1.4,0.8-2.3c0.2-0.9,0.2-1.8,0.2-2.8c0-0.9-0.1-1.7-0.2-2.6
			c-0.1-0.8-0.4-1.6-0.8-2.2C76.5,6.9,76,6.3,75.4,6c-0.6-0.4-1.5-0.6-2.5-0.6h-0.6c-0.2,0-0.4,0-0.6,0c-0.2,0-0.4,0-0.6,0.1
			c-0.1,0-0.2,0-0.3,0V19.5z M118.6,19.5c0.1,0,0.2,0,0.3,0c0.2,0,0.4,0,0.6,0c0.2,0,0.4,0,0.6,0c0.2,0,0.4,0,0.6,0
			c0.5,0,0.9-0.1,1.3-0.2c0.4-0.1,0.8-0.3,1.1-0.6c0.3-0.3,0.6-0.6,0.7-1c0.2-0.4,0.3-0.9,0.3-1.4c0-0.7-0.1-1.2-0.3-1.6
			c-0.2-0.4-0.5-0.7-0.9-0.9c-0.4-0.2-0.8-0.4-1.2-0.5c-0.5-0.1-0.9-0.1-1.4-0.1h-1.7V19.5z M136.7,13.6h5c0-1.2-0.2-2-0.6-2.6
			c-0.4-0.6-0.9-0.8-1.6-0.8c-0.8,0-1.4,0.3-1.9,0.8C137.1,11.5,136.8,12.4,136.7,13.6 M118.6,11.4h1c0.3,0,0.6,0,0.9,0
			c0.3,0,0.6,0,0.8-0.1c0.6-0.2,1.2-0.6,1.7-1.2c0.5-0.5,0.7-1.2,0.7-2c0-0.5-0.1-1-0.2-1.3c-0.2-0.4-0.4-0.6-0.6-0.8
			c-0.3-0.2-0.6-0.4-1-0.4c-0.4-0.1-0.8-0.1-1.2-0.1c-0.5,0-0.9,0-1.3,0c-0.3,0-0.6,0-0.8,0.1V11.4z"/>
		<path fill="#878787" d="M93.6,6.6c-1,0-1.8-0.8-1.8-1.8c0-1,0.8-1.8,1.8-1.8c1,0,1.8,0.8,1.8,1.8C95.4,5.8,94.6,6.6,93.6,6.6"/>
		<path fill="#878787" d="M186.4,21.4h-1.7v-3.9c0-0.4-0.1-0.8-0.2-0.9c-0.1-0.2-0.3-0.2-0.5-0.2c-0.2,0-0.4,0.1-0.5,0.2
			c-0.1,0.1-0.3,0.3-0.3,0.5v4.5h-1.7v-6.5h1.3l0.2,0.7c0.1-0.2,0.3-0.4,0.6-0.5c0.3-0.2,0.6-0.3,1.1-0.3c0.3,0,0.5,0,0.7,0.1
			c0.2,0.1,0.4,0.2,0.5,0.4c0.1,0.2,0.2,0.4,0.3,0.7c0.1,0.3,0.1,0.7,0.1,1.1V21.4z"/>
		<path fill="#878787" d="M191.7,21.6c-0.4,0-0.7,0-1-0.1c-0.3-0.1-0.6-0.2-0.8-0.3l-0.1,0l0.5-1.4l0.1,0c0.2,0.1,0.4,0.2,0.6,0.3
			c0.2,0.1,0.5,0.1,0.7,0.1c0.2,0,0.3,0,0.4-0.1c0.1-0.1,0.2-0.2,0.2-0.4c0-0.2,0-0.3-0.2-0.4c-0.1-0.1-0.2-0.2-0.4-0.3
			c-0.2-0.1-0.4-0.2-0.6-0.3c-0.2-0.1-0.4-0.3-0.6-0.4c-0.2-0.2-0.3-0.4-0.5-0.6c-0.1-0.2-0.2-0.5-0.2-0.9c0-0.6,0.2-1.1,0.5-1.4
			c0.3-0.3,0.8-0.5,1.5-0.5c0.4,0,0.7,0,1.1,0.1c0.3,0.1,0.6,0.2,0.8,0.3l0.1,0l-0.4,1.3l-0.1,0c-0.2-0.1-0.4-0.1-0.6-0.2
			c-0.2-0.1-0.4-0.1-0.7-0.1c-0.5,0-0.5,0.3-0.5,0.4c0,0.1,0,0.2,0.1,0.3c0.1,0.1,0.3,0.2,0.4,0.3c0.2,0.1,0.4,0.2,0.6,0.3
			c0.2,0.1,0.4,0.3,0.6,0.4c0.2,0.2,0.3,0.4,0.5,0.6c0.1,0.2,0.2,0.6,0.2,0.9c0,0.6-0.2,1.1-0.6,1.5C193,21.4,192.4,21.6,191.7,21.6
			"/>
		<path fill="#878787" d="M196.5,21.6c-0.5,0-0.9-0.2-1.1-0.4c-0.3-0.3-0.4-0.8-0.4-1.5v-3.2h-0.7v-1.5h0.7v-1.2l1.7-0.5v1.7h1.2
			v1.5h-1.2v2.7c0,0.3,0,0.6,0.1,0.7c0.1,0.1,0.2,0.2,0.3,0.2c0.1,0,0.2,0,0.3,0c0.1,0,0.2-0.1,0.3-0.1l0.1,0l0.2,1.4l-0.1,0
			c-0.2,0.1-0.4,0.2-0.7,0.2C197,21.6,196.7,21.6,196.5,21.6"/>
		<path fill="#878787" d="M200.1,21.4h-1.7v-6.5h1.3l0.2,0.7c0.1-0.2,0.3-0.4,0.4-0.5c0.2-0.2,0.5-0.3,0.8-0.3c0.2,0,0.4,0,0.6,0.1
			l0.1,0l-0.2,1.7l-0.1,0c-0.4-0.2-0.8-0.1-1.1,0.1c-0.1,0.1-0.2,0.3-0.3,0.5V21.4z"/>
		<path fill="#878787" d="M206.4,17.5h1.6c0-0.4,0-0.8-0.1-1c-0.1-0.2-0.3-0.3-0.5-0.3c-0.3,0-0.5,0.1-0.7,0.3
			C206.5,16.8,206.4,17.1,206.4,17.5 M207.3,21.6c-0.5,0-0.8-0.1-1.2-0.2c-0.3-0.2-0.6-0.4-0.8-0.7c-0.2-0.3-0.4-0.7-0.5-1.1
			c-0.1-0.4-0.1-0.9-0.1-1.4c0-1.2,0.2-2,0.7-2.6c0.5-0.6,1.1-0.8,1.9-0.8c0.3,0,0.5,0,0.8,0.1c0.3,0.1,0.5,0.2,0.7,0.4
			c0.2,0.2,0.4,0.5,0.5,0.8c0.1,0.3,0.2,0.7,0.2,1.2c0,0.2,0,0.4,0,0.6c0,0.2-0.1,0.4-0.1,0.7l0,0.1h-3.1c0,0.5,0.1,0.8,0.3,1.1
			c0.2,0.3,0.5,0.4,0.9,0.4c0.3,0,0.5,0,0.7-0.1c0.2-0.1,0.4-0.2,0.5-0.3l0.1-0.1l0.5,1.2l0,0c-0.2,0.2-0.5,0.4-0.9,0.5
			C208.1,21.5,207.7,21.6,207.3,21.6"/>
		<path fill="#878787" d="M212.1,21.6c-0.4,0-0.7,0-1-0.1c-0.3-0.1-0.6-0.2-0.8-0.3l-0.1,0l0.5-1.4l0.1,0c0.2,0.1,0.4,0.2,0.6,0.3
			c0.2,0.1,0.5,0.1,0.7,0.1c0.2,0,0.3,0,0.4-0.1c0.1-0.1,0.2-0.2,0.2-0.4c0-0.2,0-0.3-0.1-0.4c-0.1-0.1-0.3-0.2-0.4-0.3
			c-0.2-0.1-0.4-0.2-0.6-0.3c-0.2-0.1-0.4-0.3-0.6-0.4c-0.2-0.2-0.3-0.4-0.5-0.6c-0.1-0.2-0.2-0.5-0.2-0.9c0-0.6,0.2-1.1,0.5-1.4
			c0.3-0.3,0.8-0.5,1.5-0.5c0.4,0,0.7,0,1.1,0.1c0.3,0.1,0.6,0.2,0.8,0.3l0.1,0l-0.4,1.3l-0.1,0c-0.2-0.1-0.3-0.1-0.6-0.2
			c-0.2-0.1-0.4-0.1-0.7-0.1c-0.5,0-0.5,0.3-0.5,0.4c0,0.1,0,0.2,0.1,0.3c0.1,0.1,0.3,0.2,0.4,0.3c0.2,0.1,0.4,0.2,0.6,0.3
			c0.2,0.1,0.4,0.3,0.6,0.4c0.2,0.2,0.3,0.4,0.5,0.6c0.1,0.2,0.2,0.6,0.2,0.9c0,0.6-0.2,1.1-0.6,1.5
			C213.3,21.4,212.8,21.6,212.1,21.6"/>
	</g>
	<polygon fill="#878787" points="178.1,21.4 176.3,21.4 176.3,16.2 174.6,19.8 174,19.8 172.3,16.3 172.3,21.4 170.6,21.4 
		170.6,12.4 172.3,12.4 174.4,16.8 176.4,12.4 178.1,12.4 	"/>
	<g>
		<path fill="#878787" d="M179.8,12.2c-0.5,0-1,0.4-1,1c0,0.5,0.4,1,1,1s1-0.4,1-1C180.8,12.7,180.3,12.2,179.8,12.2 M180.6,21.4
			H179v-6.5h1.7V21.4z"/>
		<path fill="#878787" d="M188.2,12.2c-0.5,0-1,0.4-1,1c0,0.5,0.4,1,1,1c0.5,0,1-0.4,1-1C189.2,12.7,188.8,12.2,188.2,12.2
			 M189.1,21.4h-1.7v-6.5h1.7V21.4z"/>
		<path fill="#878787" d="M203.2,12.2c-0.5,0-1,0.4-1,1c0,0.5,0.4,1,1,1c0.5,0,1-0.4,1-1C204.1,12.7,203.7,12.2,203.2,12.2
			 M204,21.4h-1.7v-6.5h1.7V21.4z"/>
	</g>
	<path fill="#878787" d="M214.6,12.1v0.4h0.7v1.6h0.4v-1.6h0.7v-0.4H214.6z M218.6,12.1l-0.7,1.2l-0.7-1.2h-0.4v2h0.4v-1.2l0.6,1
		h0.2l0.7-1.1v1.3h0.4v-2H218.6z"/>
</g>
</svg>
